G75*
%MOIN*%
%OFA0B0*%
%FSLAX25Y25*%
%IPPOS*%
%LPD*%
%AMOC8*
5,1,8,0,0,1.08239X$1,22.5*
%
%ADD10C,0.07099*%
%ADD11OC8,0.09658*%
%ADD12C,0.08200*%
%ADD13OC8,0.06400*%
%ADD14R,0.07300X0.07300*%
%ADD15C,0.07300*%
D10*
X0060000Y0057776D03*
X0060000Y0081398D03*
X0116000Y0081398D03*
X0116000Y0057776D03*
X0171500Y0057776D03*
X0171500Y0081398D03*
X0170500Y0178969D03*
X0170500Y0202591D03*
X0110500Y0202591D03*
X0110500Y0178969D03*
X0050500Y0178969D03*
X0050500Y0202591D03*
D11*
X0063886Y0205346D03*
X0063886Y0192748D03*
X0063886Y0178969D03*
X0037114Y0178969D03*
X0037114Y0205346D03*
X0097114Y0205346D03*
X0097114Y0178969D03*
X0123886Y0178969D03*
X0123886Y0192748D03*
X0123886Y0205346D03*
X0157114Y0205346D03*
X0157114Y0178969D03*
X0183886Y0178969D03*
X0183886Y0192748D03*
X0183886Y0205346D03*
X0184886Y0081398D03*
X0184886Y0055020D03*
X0158114Y0055020D03*
X0158114Y0067618D03*
X0158114Y0081398D03*
X0129386Y0081398D03*
X0129386Y0055020D03*
X0102614Y0055020D03*
X0102614Y0067618D03*
X0102614Y0081398D03*
X0073386Y0081398D03*
X0073386Y0055020D03*
X0046614Y0055020D03*
X0046614Y0067618D03*
X0046614Y0081398D03*
D12*
X0015000Y0049433D03*
X0015000Y0059433D03*
X0015000Y0069433D03*
X0015000Y0079433D03*
X0015000Y0089433D03*
X0015000Y0099433D03*
X0015000Y0109433D03*
X0015000Y0119433D03*
X0015000Y0134433D03*
X0015000Y0144433D03*
X0015000Y0154433D03*
X0015000Y0164433D03*
X0015000Y0174433D03*
X0015000Y0184433D03*
X0015000Y0194433D03*
X0015000Y0204433D03*
X0084500Y0149933D03*
X0084500Y0139933D03*
X0205000Y0134433D03*
X0205000Y0124433D03*
X0205000Y0114433D03*
X0205000Y0104433D03*
X0205000Y0094433D03*
X0205000Y0084433D03*
X0205000Y0154433D03*
X0205000Y0164433D03*
X0205000Y0174433D03*
X0205000Y0184433D03*
X0205000Y0194433D03*
X0205000Y0204433D03*
D13*
X0168500Y0148433D03*
X0168500Y0136933D03*
X0168500Y0125933D03*
X0168500Y0114933D03*
X0128500Y0114933D03*
X0128500Y0125933D03*
X0128500Y0136933D03*
X0128500Y0148433D03*
D14*
X0101500Y0124933D03*
D15*
X0101500Y0114933D03*
M02*
