%
M48
M72
T01C0.0276
T02C0.0320
T03C0.0400
T04C0.0591
T05C0.0630
%
T01
X10150Y11493
X10150Y12493
T02
X12850Y12593
X12850Y11493
X12850Y13693
X12850Y14843
X16850Y14843
X16850Y13693
X16850Y12593
X16850Y11493
T03
X1500Y4943
X1500Y5943
X1500Y6943
X1500Y7943
X1500Y8943
X1500Y9943
X1500Y10943
X1500Y11943
X1500Y13443
X1500Y14443
X1500Y15443
X1500Y16443
X1500Y17443
X1500Y18443
X1500Y19443
X1500Y20443
X8450Y14993
X8450Y13993
X20500Y13443
X20500Y12443
X20500Y11443
X20500Y10443
X20500Y9443
X20500Y8443
X20500Y15443
X20500Y16443
X20500Y17443
X20500Y18443
X20500Y19443
X20500Y20443
T04
X18389Y20535
X18389Y19275
X18389Y17897
X15711Y17897
X15711Y20535
X12389Y20535
X12389Y19275
X12389Y17897
X9711Y17897
X9711Y20535
X6389Y20535
X6389Y19275
X6389Y17897
X3711Y17897
X3711Y20535
X4661Y8140
X4661Y6762
X4661Y5502
X7339Y5502
X7339Y8140
X10261Y8140
X10261Y6762
X10261Y5502
X12939Y5502
X12939Y8140
X15811Y8140
X15811Y6762
X15811Y5502
X18489Y5502
X18489Y8140
T05
X17150Y8140
X17150Y5778
X11600Y5778
X11600Y8140
X6000Y8140
X6000Y5778
X5050Y17897
X5050Y20259
X11050Y20259
X11050Y17897
X17050Y17897
X17050Y20259
M30
