G75*
%MOIN*%
%OFA0B0*%
%FSLAX25Y25*%
%IPPOS*%
%LPD*%
%AMOC8*
5,1,8,0,0,1.08239X$1,22.5*
%
%ADD10C,0.00900*%
%ADD11C,0.00800*%
%ADD12C,0.00500*%
%ADD13C,0.01000*%
%ADD14C,0.00600*%
%ADD15R,0.03400X0.02400*%
D10*
X0022343Y0047383D02*
X0022343Y0049952D01*
X0022343Y0048667D02*
X0030050Y0048667D01*
X0030050Y0047383D02*
X0030050Y0049952D01*
X0030050Y0052662D02*
X0022343Y0052662D01*
X0024912Y0055231D01*
X0022343Y0057800D01*
X0030050Y0057800D01*
X0028766Y0068500D02*
X0030050Y0069784D01*
X0030050Y0072353D01*
X0028766Y0073637D01*
X0027481Y0073637D01*
X0026197Y0072353D01*
X0026197Y0069784D01*
X0024912Y0068500D01*
X0023628Y0068500D01*
X0022343Y0069784D01*
X0022343Y0072353D01*
X0023628Y0073637D01*
X0026197Y0076419D02*
X0024912Y0077703D01*
X0024912Y0080272D01*
X0026197Y0081556D01*
X0027481Y0081556D01*
X0027481Y0076419D01*
X0026197Y0076419D02*
X0028766Y0076419D01*
X0030050Y0077703D01*
X0030050Y0080272D01*
X0030050Y0084337D02*
X0024912Y0084337D01*
X0024912Y0088191D01*
X0026197Y0089475D01*
X0030050Y0089475D01*
X0030050Y0092256D02*
X0030050Y0096109D01*
X0028766Y0097394D01*
X0027481Y0096109D01*
X0027481Y0093540D01*
X0026197Y0092256D01*
X0024912Y0093540D01*
X0024912Y0097394D01*
X0026197Y0100175D02*
X0028766Y0100175D01*
X0030050Y0101459D01*
X0030050Y0104028D01*
X0028766Y0105313D01*
X0026197Y0105313D01*
X0024912Y0104028D01*
X0024912Y0101459D01*
X0026197Y0100175D01*
X0027481Y0108094D02*
X0024912Y0110662D01*
X0024912Y0111947D01*
X0024912Y0108094D02*
X0030050Y0108094D01*
X0030050Y0122611D02*
X0022343Y0122611D01*
X0030050Y0127749D01*
X0022343Y0127749D01*
X0026197Y0130530D02*
X0028766Y0130530D01*
X0030050Y0131814D01*
X0030050Y0134383D01*
X0028766Y0135668D01*
X0026197Y0135668D01*
X0024912Y0134383D01*
X0024912Y0131814D01*
X0026197Y0130530D01*
X0026197Y0138449D02*
X0024912Y0139733D01*
X0024912Y0143587D01*
X0022343Y0143587D02*
X0030050Y0143587D01*
X0030050Y0139733D01*
X0028766Y0138449D01*
X0026197Y0138449D01*
X0026197Y0146368D02*
X0024912Y0147652D01*
X0024912Y0150221D01*
X0026197Y0151505D01*
X0027481Y0151505D01*
X0027481Y0146368D01*
X0026197Y0146368D02*
X0028766Y0146368D01*
X0030050Y0147652D01*
X0030050Y0150221D01*
D11*
X0076895Y0172565D02*
X0078963Y0174633D01*
X0083100Y0174633D01*
X0083100Y0176942D02*
X0076895Y0176942D01*
X0083100Y0181079D01*
X0076895Y0181079D01*
X0078963Y0183388D02*
X0076895Y0185456D01*
X0078963Y0187524D01*
X0083100Y0187524D01*
X0083100Y0189833D02*
X0083100Y0193970D01*
X0082066Y0196279D02*
X0083100Y0197313D01*
X0083100Y0199381D01*
X0082066Y0200415D01*
X0077929Y0200415D01*
X0076895Y0199381D01*
X0076895Y0197313D01*
X0077929Y0196279D01*
X0082066Y0196279D01*
X0082066Y0202724D02*
X0077929Y0202724D01*
X0076895Y0203758D01*
X0076895Y0205827D01*
X0077929Y0206861D01*
X0079997Y0206861D02*
X0079997Y0204792D01*
X0079997Y0206861D02*
X0082066Y0206861D01*
X0083100Y0205827D01*
X0083100Y0203758D01*
X0082066Y0202724D01*
X0083100Y0189833D02*
X0076895Y0189833D01*
X0079997Y0187524D02*
X0079997Y0183388D01*
X0078963Y0183388D02*
X0083100Y0183388D01*
X0079997Y0174633D02*
X0079997Y0170497D01*
X0078963Y0170497D02*
X0076895Y0172565D01*
X0078963Y0170497D02*
X0083100Y0170497D01*
X0082000Y0154933D02*
X0087000Y0154933D01*
X0089500Y0152433D01*
X0089500Y0147433D01*
X0087000Y0144933D01*
X0089500Y0142433D01*
X0089500Y0137433D01*
X0087000Y0134933D01*
X0082000Y0134933D01*
X0079500Y0137433D01*
X0079500Y0142433D01*
X0082000Y0144933D01*
X0079500Y0147433D01*
X0079500Y0152433D01*
X0082000Y0154933D01*
X0091657Y0119933D02*
X0091660Y0120175D01*
X0091669Y0120416D01*
X0091684Y0120657D01*
X0091704Y0120898D01*
X0091731Y0121138D01*
X0091764Y0121377D01*
X0091802Y0121616D01*
X0091846Y0121853D01*
X0091896Y0122090D01*
X0091952Y0122325D01*
X0092014Y0122558D01*
X0092081Y0122790D01*
X0092154Y0123021D01*
X0092232Y0123249D01*
X0092317Y0123475D01*
X0092406Y0123700D01*
X0092501Y0123922D01*
X0092602Y0124141D01*
X0092708Y0124359D01*
X0092819Y0124573D01*
X0092936Y0124785D01*
X0093057Y0124993D01*
X0093184Y0125199D01*
X0093316Y0125401D01*
X0093453Y0125601D01*
X0093594Y0125796D01*
X0093740Y0125989D01*
X0093891Y0126177D01*
X0094047Y0126362D01*
X0094207Y0126543D01*
X0094371Y0126720D01*
X0094540Y0126893D01*
X0094713Y0127062D01*
X0094890Y0127226D01*
X0095071Y0127386D01*
X0095256Y0127542D01*
X0095444Y0127693D01*
X0095637Y0127839D01*
X0095832Y0127980D01*
X0096032Y0128117D01*
X0096234Y0128249D01*
X0096440Y0128376D01*
X0096648Y0128497D01*
X0096860Y0128614D01*
X0097074Y0128725D01*
X0097292Y0128831D01*
X0097511Y0128932D01*
X0097733Y0129027D01*
X0097958Y0129116D01*
X0098184Y0129201D01*
X0098412Y0129279D01*
X0098643Y0129352D01*
X0098875Y0129419D01*
X0099108Y0129481D01*
X0099343Y0129537D01*
X0099580Y0129587D01*
X0099817Y0129631D01*
X0100056Y0129669D01*
X0100295Y0129702D01*
X0100535Y0129729D01*
X0100776Y0129749D01*
X0101017Y0129764D01*
X0101258Y0129773D01*
X0101500Y0129776D01*
X0101742Y0129773D01*
X0101983Y0129764D01*
X0102224Y0129749D01*
X0102465Y0129729D01*
X0102705Y0129702D01*
X0102944Y0129669D01*
X0103183Y0129631D01*
X0103420Y0129587D01*
X0103657Y0129537D01*
X0103892Y0129481D01*
X0104125Y0129419D01*
X0104357Y0129352D01*
X0104588Y0129279D01*
X0104816Y0129201D01*
X0105042Y0129116D01*
X0105267Y0129027D01*
X0105489Y0128932D01*
X0105708Y0128831D01*
X0105926Y0128725D01*
X0106140Y0128614D01*
X0106352Y0128497D01*
X0106560Y0128376D01*
X0106766Y0128249D01*
X0106968Y0128117D01*
X0107168Y0127980D01*
X0107363Y0127839D01*
X0107556Y0127693D01*
X0107744Y0127542D01*
X0107929Y0127386D01*
X0108110Y0127226D01*
X0108287Y0127062D01*
X0108460Y0126893D01*
X0108629Y0126720D01*
X0108793Y0126543D01*
X0108953Y0126362D01*
X0109109Y0126177D01*
X0109260Y0125989D01*
X0109406Y0125796D01*
X0109547Y0125601D01*
X0109684Y0125401D01*
X0109816Y0125199D01*
X0109943Y0124993D01*
X0110064Y0124785D01*
X0110181Y0124573D01*
X0110292Y0124359D01*
X0110398Y0124141D01*
X0110499Y0123922D01*
X0110594Y0123700D01*
X0110683Y0123475D01*
X0110768Y0123249D01*
X0110846Y0123021D01*
X0110919Y0122790D01*
X0110986Y0122558D01*
X0111048Y0122325D01*
X0111104Y0122090D01*
X0111154Y0121853D01*
X0111198Y0121616D01*
X0111236Y0121377D01*
X0111269Y0121138D01*
X0111296Y0120898D01*
X0111316Y0120657D01*
X0111331Y0120416D01*
X0111340Y0120175D01*
X0111343Y0119933D01*
X0111340Y0119691D01*
X0111331Y0119450D01*
X0111316Y0119209D01*
X0111296Y0118968D01*
X0111269Y0118728D01*
X0111236Y0118489D01*
X0111198Y0118250D01*
X0111154Y0118013D01*
X0111104Y0117776D01*
X0111048Y0117541D01*
X0110986Y0117308D01*
X0110919Y0117076D01*
X0110846Y0116845D01*
X0110768Y0116617D01*
X0110683Y0116391D01*
X0110594Y0116166D01*
X0110499Y0115944D01*
X0110398Y0115725D01*
X0110292Y0115507D01*
X0110181Y0115293D01*
X0110064Y0115081D01*
X0109943Y0114873D01*
X0109816Y0114667D01*
X0109684Y0114465D01*
X0109547Y0114265D01*
X0109406Y0114070D01*
X0109260Y0113877D01*
X0109109Y0113689D01*
X0108953Y0113504D01*
X0108793Y0113323D01*
X0108629Y0113146D01*
X0108460Y0112973D01*
X0108287Y0112804D01*
X0108110Y0112640D01*
X0107929Y0112480D01*
X0107744Y0112324D01*
X0107556Y0112173D01*
X0107363Y0112027D01*
X0107168Y0111886D01*
X0106968Y0111749D01*
X0106766Y0111617D01*
X0106560Y0111490D01*
X0106352Y0111369D01*
X0106140Y0111252D01*
X0105926Y0111141D01*
X0105708Y0111035D01*
X0105489Y0110934D01*
X0105267Y0110839D01*
X0105042Y0110750D01*
X0104816Y0110665D01*
X0104588Y0110587D01*
X0104357Y0110514D01*
X0104125Y0110447D01*
X0103892Y0110385D01*
X0103657Y0110329D01*
X0103420Y0110279D01*
X0103183Y0110235D01*
X0102944Y0110197D01*
X0102705Y0110164D01*
X0102465Y0110137D01*
X0102224Y0110117D01*
X0101983Y0110102D01*
X0101742Y0110093D01*
X0101500Y0110090D01*
X0101258Y0110093D01*
X0101017Y0110102D01*
X0100776Y0110117D01*
X0100535Y0110137D01*
X0100295Y0110164D01*
X0100056Y0110197D01*
X0099817Y0110235D01*
X0099580Y0110279D01*
X0099343Y0110329D01*
X0099108Y0110385D01*
X0098875Y0110447D01*
X0098643Y0110514D01*
X0098412Y0110587D01*
X0098184Y0110665D01*
X0097958Y0110750D01*
X0097733Y0110839D01*
X0097511Y0110934D01*
X0097292Y0111035D01*
X0097074Y0111141D01*
X0096860Y0111252D01*
X0096648Y0111369D01*
X0096440Y0111490D01*
X0096234Y0111617D01*
X0096032Y0111749D01*
X0095832Y0111886D01*
X0095637Y0112027D01*
X0095444Y0112173D01*
X0095256Y0112324D01*
X0095071Y0112480D01*
X0094890Y0112640D01*
X0094713Y0112804D01*
X0094540Y0112973D01*
X0094371Y0113146D01*
X0094207Y0113323D01*
X0094047Y0113504D01*
X0093891Y0113689D01*
X0093740Y0113877D01*
X0093594Y0114070D01*
X0093453Y0114265D01*
X0093316Y0114465D01*
X0093184Y0114667D01*
X0093057Y0114873D01*
X0092936Y0115081D01*
X0092819Y0115293D01*
X0092708Y0115507D01*
X0092602Y0115725D01*
X0092501Y0115944D01*
X0092406Y0116166D01*
X0092317Y0116391D01*
X0092232Y0116617D01*
X0092154Y0116845D01*
X0092081Y0117076D01*
X0092014Y0117308D01*
X0091952Y0117541D01*
X0091896Y0117776D01*
X0091846Y0118013D01*
X0091802Y0118250D01*
X0091764Y0118489D01*
X0091731Y0118728D01*
X0091704Y0118968D01*
X0091684Y0119209D01*
X0091669Y0119450D01*
X0091660Y0119691D01*
X0091657Y0119933D01*
X0096000Y0116933D02*
X0096000Y0112933D01*
X0091600Y0088435D02*
X0091600Y0084298D01*
X0085395Y0084298D01*
X0087463Y0081990D02*
X0091600Y0081990D01*
X0088497Y0081990D02*
X0088497Y0077853D01*
X0087463Y0077853D02*
X0085395Y0079921D01*
X0087463Y0081990D01*
X0087463Y0077853D02*
X0091600Y0077853D01*
X0091600Y0073476D02*
X0085395Y0073476D01*
X0085395Y0075544D02*
X0085395Y0071407D01*
X0085395Y0069179D02*
X0085395Y0067110D01*
X0085395Y0068145D02*
X0091600Y0068145D01*
X0091600Y0069179D02*
X0091600Y0067110D01*
X0090566Y0064802D02*
X0088497Y0064802D01*
X0088497Y0062733D01*
X0086429Y0060665D02*
X0090566Y0060665D01*
X0091600Y0061699D01*
X0091600Y0063767D01*
X0090566Y0064802D01*
X0086429Y0064802D02*
X0085395Y0063767D01*
X0085395Y0061699D01*
X0086429Y0060665D01*
X0085395Y0058436D02*
X0085395Y0056368D01*
X0085395Y0057402D02*
X0091600Y0057402D01*
X0091600Y0056368D02*
X0091600Y0058436D01*
X0090566Y0054059D02*
X0086429Y0054059D01*
X0085395Y0053025D01*
X0085395Y0049922D01*
X0091600Y0049922D01*
X0091600Y0053025D01*
X0090566Y0054059D01*
X0141395Y0053525D02*
X0141395Y0050422D01*
X0147600Y0050422D01*
X0147600Y0053525D01*
X0146566Y0054559D01*
X0142429Y0054559D01*
X0141395Y0053525D01*
X0141395Y0056868D02*
X0141395Y0058936D01*
X0141395Y0057902D02*
X0147600Y0057902D01*
X0147600Y0056868D02*
X0147600Y0058936D01*
X0146566Y0061165D02*
X0147600Y0062199D01*
X0147600Y0064267D01*
X0146566Y0065302D01*
X0144497Y0065302D01*
X0144497Y0063233D01*
X0142429Y0061165D02*
X0146566Y0061165D01*
X0142429Y0061165D02*
X0141395Y0062199D01*
X0141395Y0064267D01*
X0142429Y0065302D01*
X0141395Y0067610D02*
X0141395Y0069679D01*
X0141395Y0068645D02*
X0147600Y0068645D01*
X0147600Y0069679D02*
X0147600Y0067610D01*
X0141395Y0071907D02*
X0141395Y0076044D01*
X0141395Y0073976D02*
X0147600Y0073976D01*
X0147600Y0078353D02*
X0143463Y0078353D01*
X0141395Y0080421D01*
X0143463Y0082490D01*
X0147600Y0082490D01*
X0147600Y0084798D02*
X0147600Y0088935D01*
X0147600Y0084798D02*
X0141395Y0084798D01*
X0144497Y0082490D02*
X0144497Y0078353D01*
X0143100Y0170497D02*
X0138963Y0170497D01*
X0136895Y0172565D01*
X0138963Y0174633D01*
X0143100Y0174633D01*
X0143100Y0176942D02*
X0136895Y0176942D01*
X0143100Y0181079D01*
X0136895Y0181079D01*
X0138963Y0183388D02*
X0136895Y0185456D01*
X0138963Y0187524D01*
X0143100Y0187524D01*
X0143100Y0189833D02*
X0143100Y0193970D01*
X0142066Y0196279D02*
X0143100Y0197313D01*
X0143100Y0199381D01*
X0142066Y0200415D01*
X0137929Y0200415D01*
X0136895Y0199381D01*
X0136895Y0197313D01*
X0137929Y0196279D01*
X0142066Y0196279D01*
X0142066Y0202724D02*
X0137929Y0202724D01*
X0136895Y0203758D01*
X0136895Y0205827D01*
X0137929Y0206861D01*
X0139997Y0206861D02*
X0139997Y0204792D01*
X0139997Y0206861D02*
X0142066Y0206861D01*
X0143100Y0205827D01*
X0143100Y0203758D01*
X0142066Y0202724D01*
X0143100Y0189833D02*
X0136895Y0189833D01*
X0139997Y0187524D02*
X0139997Y0183388D01*
X0138963Y0183388D02*
X0143100Y0183388D01*
X0139997Y0174633D02*
X0139997Y0170497D01*
D12*
X0036331Y0046281D02*
X0035664Y0046281D01*
X0034997Y0046948D01*
X0034997Y0048283D01*
X0035664Y0048950D01*
X0036998Y0048283D02*
X0037666Y0048950D01*
X0038333Y0048950D01*
X0039000Y0048283D01*
X0039000Y0046948D01*
X0038333Y0046281D01*
X0036998Y0046948D02*
X0036998Y0048283D01*
X0036998Y0046948D02*
X0036331Y0046281D01*
X0034997Y0050425D02*
X0036331Y0051759D01*
X0034997Y0053094D01*
X0039000Y0053094D01*
X0039000Y0054568D02*
X0036331Y0054568D01*
X0034997Y0055903D01*
X0036331Y0057237D01*
X0039000Y0057237D01*
X0039000Y0058712D02*
X0034997Y0058712D01*
X0034997Y0060713D01*
X0035664Y0061381D01*
X0036998Y0061381D01*
X0037666Y0060713D01*
X0037666Y0058712D01*
X0037666Y0060046D02*
X0039000Y0061381D01*
X0039000Y0064190D02*
X0034997Y0064190D01*
X0034997Y0065524D02*
X0034997Y0062855D01*
X0036998Y0057237D02*
X0036998Y0054568D01*
X0034997Y0050425D02*
X0039000Y0050425D01*
X0049173Y0047933D02*
X0070827Y0047933D01*
X0039000Y0071810D02*
X0039000Y0073144D01*
X0038333Y0073811D01*
X0034997Y0073811D01*
X0034997Y0075286D02*
X0034997Y0077955D01*
X0034997Y0079429D02*
X0034997Y0081431D01*
X0035664Y0082098D01*
X0036331Y0082098D01*
X0036998Y0081431D01*
X0036998Y0079429D01*
X0034997Y0079429D02*
X0039000Y0079429D01*
X0039000Y0081431D01*
X0038333Y0082098D01*
X0037666Y0082098D01*
X0036998Y0081431D01*
X0036998Y0083573D02*
X0036998Y0086242D01*
X0036331Y0086242D02*
X0039000Y0086242D01*
X0036331Y0086242D02*
X0034997Y0084907D01*
X0036331Y0083573D01*
X0039000Y0083573D01*
X0036998Y0076620D02*
X0036998Y0075286D01*
X0034997Y0075286D02*
X0039000Y0075286D01*
X0039000Y0071810D02*
X0038333Y0071142D01*
X0034997Y0071142D01*
X0036998Y0091860D02*
X0036998Y0094529D01*
X0034997Y0100147D02*
X0039000Y0100147D01*
X0037666Y0101482D01*
X0039000Y0102816D01*
X0034997Y0102816D01*
X0034997Y0104291D02*
X0034997Y0105625D01*
X0034997Y0104958D02*
X0039000Y0104958D01*
X0039000Y0104291D02*
X0039000Y0105625D01*
X0038333Y0107053D02*
X0039000Y0107720D01*
X0039000Y0109055D01*
X0038333Y0109722D01*
X0037666Y0109722D01*
X0036998Y0109055D01*
X0036998Y0107720D01*
X0036331Y0107053D01*
X0035664Y0107053D01*
X0034997Y0107720D01*
X0034997Y0109055D01*
X0035664Y0109722D01*
X0034997Y0111197D02*
X0039000Y0111197D01*
X0039000Y0113866D01*
X0039000Y0115340D02*
X0034997Y0115340D01*
X0034997Y0117342D01*
X0035664Y0118009D01*
X0036998Y0118009D01*
X0037666Y0117342D01*
X0037666Y0115340D01*
X0037666Y0116675D02*
X0039000Y0118009D01*
X0039000Y0123627D02*
X0034997Y0123627D01*
X0034997Y0125629D01*
X0035664Y0126296D01*
X0036998Y0126296D01*
X0037666Y0125629D01*
X0037666Y0123627D01*
X0037666Y0124962D02*
X0039000Y0126296D01*
X0038333Y0127771D02*
X0036998Y0127771D01*
X0036331Y0128438D01*
X0036331Y0129772D01*
X0036998Y0130440D01*
X0037666Y0130440D01*
X0037666Y0127771D01*
X0038333Y0127771D02*
X0039000Y0128438D01*
X0039000Y0129772D01*
X0039000Y0131914D02*
X0039000Y0133916D01*
X0038333Y0134583D01*
X0037666Y0133916D01*
X0037666Y0132582D01*
X0036998Y0131914D01*
X0036331Y0132582D01*
X0036331Y0134583D01*
X0036998Y0136058D02*
X0036331Y0136725D01*
X0036331Y0138060D01*
X0036998Y0138727D01*
X0037666Y0138727D01*
X0037666Y0136058D01*
X0038333Y0136058D02*
X0036998Y0136058D01*
X0038333Y0136058D02*
X0039000Y0136725D01*
X0039000Y0138060D01*
X0038333Y0140201D02*
X0037666Y0140869D01*
X0037666Y0142870D01*
X0036998Y0142870D02*
X0039000Y0142870D01*
X0039000Y0140869D01*
X0038333Y0140201D01*
X0036331Y0140869D02*
X0036331Y0142203D01*
X0036998Y0142870D01*
X0036331Y0144345D02*
X0039000Y0144345D01*
X0037666Y0144345D02*
X0036331Y0145679D01*
X0036331Y0146347D01*
X0036998Y0147798D02*
X0038333Y0147798D01*
X0039000Y0148465D01*
X0039000Y0150467D01*
X0039000Y0151941D02*
X0034997Y0151941D01*
X0036331Y0152609D02*
X0036331Y0153943D01*
X0036998Y0154610D01*
X0039000Y0154610D01*
X0036331Y0152609D02*
X0036998Y0151941D01*
X0036331Y0150467D02*
X0036331Y0148465D01*
X0036998Y0147798D01*
X0034997Y0113866D02*
X0034997Y0111197D01*
X0036998Y0111197D02*
X0036998Y0112531D01*
X0105173Y0047933D02*
X0126827Y0047933D01*
X0160673Y0047933D02*
X0182327Y0047933D01*
X0181327Y0212433D02*
X0159673Y0212433D01*
X0121327Y0212433D02*
X0099673Y0212433D01*
X0061327Y0212433D02*
X0039673Y0212433D01*
D13*
X0037114Y0212433D01*
X0037114Y0210965D01*
X0039673Y0212433D02*
X0039673Y0223260D01*
X0061327Y0223260D01*
X0061327Y0212433D01*
X0063886Y0212433D01*
X0063886Y0210965D01*
X0063886Y0199728D02*
X0063886Y0198366D01*
X0063886Y0187130D02*
X0063886Y0184587D01*
X0063886Y0173350D02*
X0063886Y0165189D01*
X0037114Y0165189D01*
X0037114Y0173350D01*
X0037114Y0184587D02*
X0037114Y0199728D01*
X0097114Y0199728D02*
X0097114Y0184587D01*
X0097114Y0173350D02*
X0097114Y0165189D01*
X0123886Y0165189D01*
X0123886Y0173350D01*
X0123886Y0184587D02*
X0123886Y0187130D01*
X0123886Y0198366D02*
X0123886Y0199728D01*
X0123886Y0210965D02*
X0123886Y0212433D01*
X0121327Y0212433D01*
X0121327Y0223260D01*
X0099673Y0223260D01*
X0099673Y0212433D01*
X0097114Y0212433D01*
X0097114Y0210965D01*
X0157114Y0210965D02*
X0157114Y0212433D01*
X0159673Y0212433D01*
X0159673Y0223260D01*
X0181327Y0223260D01*
X0181327Y0212433D01*
X0183886Y0212433D01*
X0183886Y0210965D01*
X0183886Y0199728D02*
X0183886Y0198366D01*
X0183886Y0187130D02*
X0183886Y0184587D01*
X0183886Y0173350D02*
X0183886Y0165189D01*
X0157114Y0165189D01*
X0157114Y0173350D01*
X0157114Y0184587D02*
X0157114Y0199728D01*
X0158114Y0095177D02*
X0158114Y0087016D01*
X0158114Y0095177D02*
X0184886Y0095177D01*
X0184886Y0087016D01*
X0184886Y0075780D02*
X0184886Y0060638D01*
X0184886Y0049402D02*
X0184886Y0047933D01*
X0182327Y0047933D01*
X0182327Y0037106D01*
X0160673Y0037106D01*
X0160673Y0047933D01*
X0158114Y0047933D01*
X0158114Y0049402D01*
X0158114Y0060638D02*
X0158114Y0062000D01*
X0158114Y0073236D02*
X0158114Y0075780D01*
X0129386Y0075780D02*
X0129386Y0060638D01*
X0129386Y0049402D02*
X0129386Y0047933D01*
X0126827Y0047933D01*
X0126827Y0037106D01*
X0105173Y0037106D01*
X0105173Y0047933D01*
X0102614Y0047933D01*
X0102614Y0049402D01*
X0102614Y0060638D02*
X0102614Y0062000D01*
X0102614Y0073236D02*
X0102614Y0075780D01*
X0102614Y0087016D02*
X0102614Y0095177D01*
X0129386Y0095177D01*
X0129386Y0087016D01*
X0073386Y0087016D02*
X0073386Y0095177D01*
X0046614Y0095177D01*
X0046614Y0087016D01*
X0046614Y0075780D02*
X0046614Y0073236D01*
X0046614Y0062000D02*
X0046614Y0060638D01*
X0046614Y0049402D02*
X0046614Y0047933D01*
X0049173Y0047933D01*
X0049173Y0037106D01*
X0070827Y0037106D01*
X0070827Y0047933D01*
X0073386Y0047933D01*
X0073386Y0049402D01*
X0073386Y0060638D02*
X0073386Y0075780D01*
D14*
X0136000Y0111433D02*
X0136000Y0118433D01*
X0136002Y0118493D01*
X0136007Y0118554D01*
X0136016Y0118613D01*
X0136029Y0118672D01*
X0136045Y0118731D01*
X0136065Y0118788D01*
X0136088Y0118843D01*
X0136115Y0118898D01*
X0136144Y0118950D01*
X0136177Y0119001D01*
X0136213Y0119050D01*
X0136251Y0119096D01*
X0136293Y0119140D01*
X0136337Y0119182D01*
X0136383Y0119220D01*
X0136432Y0119256D01*
X0136483Y0119289D01*
X0136535Y0119318D01*
X0136590Y0119345D01*
X0136645Y0119368D01*
X0136702Y0119388D01*
X0136761Y0119404D01*
X0136820Y0119417D01*
X0136879Y0119426D01*
X0136940Y0119431D01*
X0137000Y0119433D01*
X0138500Y0119433D01*
X0139000Y0118933D01*
X0158000Y0118933D01*
X0158500Y0119433D01*
X0160000Y0119433D01*
X0160060Y0119431D01*
X0160121Y0119426D01*
X0160180Y0119417D01*
X0160239Y0119404D01*
X0160298Y0119388D01*
X0160355Y0119368D01*
X0160410Y0119345D01*
X0160465Y0119318D01*
X0160517Y0119289D01*
X0160568Y0119256D01*
X0160617Y0119220D01*
X0160663Y0119182D01*
X0160707Y0119140D01*
X0160749Y0119096D01*
X0160787Y0119050D01*
X0160823Y0119001D01*
X0160856Y0118950D01*
X0160885Y0118898D01*
X0160912Y0118843D01*
X0160935Y0118788D01*
X0160955Y0118731D01*
X0160971Y0118672D01*
X0160984Y0118613D01*
X0160993Y0118554D01*
X0160998Y0118493D01*
X0161000Y0118433D01*
X0161000Y0111433D01*
X0160998Y0111373D01*
X0160993Y0111312D01*
X0160984Y0111253D01*
X0160971Y0111194D01*
X0160955Y0111135D01*
X0160935Y0111078D01*
X0160912Y0111023D01*
X0160885Y0110968D01*
X0160856Y0110916D01*
X0160823Y0110865D01*
X0160787Y0110816D01*
X0160749Y0110770D01*
X0160707Y0110726D01*
X0160663Y0110684D01*
X0160617Y0110646D01*
X0160568Y0110610D01*
X0160517Y0110577D01*
X0160465Y0110548D01*
X0160410Y0110521D01*
X0160355Y0110498D01*
X0160298Y0110478D01*
X0160239Y0110462D01*
X0160180Y0110449D01*
X0160121Y0110440D01*
X0160060Y0110435D01*
X0160000Y0110433D01*
X0158500Y0110433D01*
X0158000Y0110933D01*
X0139000Y0110933D01*
X0138500Y0110433D01*
X0137000Y0110433D01*
X0136940Y0110435D01*
X0136879Y0110440D01*
X0136820Y0110449D01*
X0136761Y0110462D01*
X0136702Y0110478D01*
X0136645Y0110498D01*
X0136590Y0110521D01*
X0136535Y0110548D01*
X0136483Y0110577D01*
X0136432Y0110610D01*
X0136383Y0110646D01*
X0136337Y0110684D01*
X0136293Y0110726D01*
X0136251Y0110770D01*
X0136213Y0110816D01*
X0136177Y0110865D01*
X0136144Y0110916D01*
X0136115Y0110968D01*
X0136088Y0111023D01*
X0136065Y0111078D01*
X0136045Y0111135D01*
X0136029Y0111194D01*
X0136016Y0111253D01*
X0136007Y0111312D01*
X0136002Y0111373D01*
X0136000Y0111433D01*
X0137000Y0121433D02*
X0138500Y0121433D01*
X0139000Y0121933D01*
X0158000Y0121933D01*
X0158500Y0121433D01*
X0160000Y0121433D01*
X0160060Y0121435D01*
X0160121Y0121440D01*
X0160180Y0121449D01*
X0160239Y0121462D01*
X0160298Y0121478D01*
X0160355Y0121498D01*
X0160410Y0121521D01*
X0160465Y0121548D01*
X0160517Y0121577D01*
X0160568Y0121610D01*
X0160617Y0121646D01*
X0160663Y0121684D01*
X0160707Y0121726D01*
X0160749Y0121770D01*
X0160787Y0121816D01*
X0160823Y0121865D01*
X0160856Y0121916D01*
X0160885Y0121968D01*
X0160912Y0122023D01*
X0160935Y0122078D01*
X0160955Y0122135D01*
X0160971Y0122194D01*
X0160984Y0122253D01*
X0160993Y0122312D01*
X0160998Y0122373D01*
X0161000Y0122433D01*
X0161000Y0129433D01*
X0160998Y0129493D01*
X0160993Y0129554D01*
X0160984Y0129613D01*
X0160971Y0129672D01*
X0160955Y0129731D01*
X0160935Y0129788D01*
X0160912Y0129843D01*
X0160885Y0129898D01*
X0160856Y0129950D01*
X0160823Y0130001D01*
X0160787Y0130050D01*
X0160749Y0130096D01*
X0160707Y0130140D01*
X0160663Y0130182D01*
X0160617Y0130220D01*
X0160568Y0130256D01*
X0160517Y0130289D01*
X0160465Y0130318D01*
X0160410Y0130345D01*
X0160355Y0130368D01*
X0160298Y0130388D01*
X0160239Y0130404D01*
X0160180Y0130417D01*
X0160121Y0130426D01*
X0160060Y0130431D01*
X0160000Y0130433D01*
X0158500Y0130433D01*
X0158000Y0129933D01*
X0139000Y0129933D01*
X0138500Y0130433D01*
X0137000Y0130433D01*
X0136940Y0130431D01*
X0136879Y0130426D01*
X0136820Y0130417D01*
X0136761Y0130404D01*
X0136702Y0130388D01*
X0136645Y0130368D01*
X0136590Y0130345D01*
X0136535Y0130318D01*
X0136483Y0130289D01*
X0136432Y0130256D01*
X0136383Y0130220D01*
X0136337Y0130182D01*
X0136293Y0130140D01*
X0136251Y0130096D01*
X0136213Y0130050D01*
X0136177Y0130001D01*
X0136144Y0129950D01*
X0136115Y0129898D01*
X0136088Y0129843D01*
X0136065Y0129788D01*
X0136045Y0129731D01*
X0136029Y0129672D01*
X0136016Y0129613D01*
X0136007Y0129554D01*
X0136002Y0129493D01*
X0136000Y0129433D01*
X0136000Y0122433D01*
X0136002Y0122373D01*
X0136007Y0122312D01*
X0136016Y0122253D01*
X0136029Y0122194D01*
X0136045Y0122135D01*
X0136065Y0122078D01*
X0136088Y0122023D01*
X0136115Y0121968D01*
X0136144Y0121916D01*
X0136177Y0121865D01*
X0136213Y0121816D01*
X0136251Y0121770D01*
X0136293Y0121726D01*
X0136337Y0121684D01*
X0136383Y0121646D01*
X0136432Y0121610D01*
X0136483Y0121577D01*
X0136535Y0121548D01*
X0136590Y0121521D01*
X0136645Y0121498D01*
X0136702Y0121478D01*
X0136761Y0121462D01*
X0136820Y0121449D01*
X0136879Y0121440D01*
X0136940Y0121435D01*
X0137000Y0121433D01*
X0137000Y0132433D02*
X0138500Y0132433D01*
X0139000Y0132933D01*
X0158000Y0132933D01*
X0158500Y0132433D01*
X0160000Y0132433D01*
X0160060Y0132435D01*
X0160121Y0132440D01*
X0160180Y0132449D01*
X0160239Y0132462D01*
X0160298Y0132478D01*
X0160355Y0132498D01*
X0160410Y0132521D01*
X0160465Y0132548D01*
X0160517Y0132577D01*
X0160568Y0132610D01*
X0160617Y0132646D01*
X0160663Y0132684D01*
X0160707Y0132726D01*
X0160749Y0132770D01*
X0160787Y0132816D01*
X0160823Y0132865D01*
X0160856Y0132916D01*
X0160885Y0132968D01*
X0160912Y0133023D01*
X0160935Y0133078D01*
X0160955Y0133135D01*
X0160971Y0133194D01*
X0160984Y0133253D01*
X0160993Y0133312D01*
X0160998Y0133373D01*
X0161000Y0133433D01*
X0161000Y0140433D01*
X0160998Y0140493D01*
X0160993Y0140554D01*
X0160984Y0140613D01*
X0160971Y0140672D01*
X0160955Y0140731D01*
X0160935Y0140788D01*
X0160912Y0140843D01*
X0160885Y0140898D01*
X0160856Y0140950D01*
X0160823Y0141001D01*
X0160787Y0141050D01*
X0160749Y0141096D01*
X0160707Y0141140D01*
X0160663Y0141182D01*
X0160617Y0141220D01*
X0160568Y0141256D01*
X0160517Y0141289D01*
X0160465Y0141318D01*
X0160410Y0141345D01*
X0160355Y0141368D01*
X0160298Y0141388D01*
X0160239Y0141404D01*
X0160180Y0141417D01*
X0160121Y0141426D01*
X0160060Y0141431D01*
X0160000Y0141433D01*
X0158500Y0141433D01*
X0158000Y0140933D01*
X0139000Y0140933D01*
X0138500Y0141433D01*
X0137000Y0141433D01*
X0136940Y0141431D01*
X0136879Y0141426D01*
X0136820Y0141417D01*
X0136761Y0141404D01*
X0136702Y0141388D01*
X0136645Y0141368D01*
X0136590Y0141345D01*
X0136535Y0141318D01*
X0136483Y0141289D01*
X0136432Y0141256D01*
X0136383Y0141220D01*
X0136337Y0141182D01*
X0136293Y0141140D01*
X0136251Y0141096D01*
X0136213Y0141050D01*
X0136177Y0141001D01*
X0136144Y0140950D01*
X0136115Y0140898D01*
X0136088Y0140843D01*
X0136065Y0140788D01*
X0136045Y0140731D01*
X0136029Y0140672D01*
X0136016Y0140613D01*
X0136007Y0140554D01*
X0136002Y0140493D01*
X0136000Y0140433D01*
X0136000Y0133433D01*
X0136002Y0133373D01*
X0136007Y0133312D01*
X0136016Y0133253D01*
X0136029Y0133194D01*
X0136045Y0133135D01*
X0136065Y0133078D01*
X0136088Y0133023D01*
X0136115Y0132968D01*
X0136144Y0132916D01*
X0136177Y0132865D01*
X0136213Y0132816D01*
X0136251Y0132770D01*
X0136293Y0132726D01*
X0136337Y0132684D01*
X0136383Y0132646D01*
X0136432Y0132610D01*
X0136483Y0132577D01*
X0136535Y0132548D01*
X0136590Y0132521D01*
X0136645Y0132498D01*
X0136702Y0132478D01*
X0136761Y0132462D01*
X0136820Y0132449D01*
X0136879Y0132440D01*
X0136940Y0132435D01*
X0137000Y0132433D01*
X0137000Y0143933D02*
X0138500Y0143933D01*
X0139000Y0144433D01*
X0158000Y0144433D01*
X0158500Y0143933D01*
X0160000Y0143933D01*
X0160060Y0143935D01*
X0160121Y0143940D01*
X0160180Y0143949D01*
X0160239Y0143962D01*
X0160298Y0143978D01*
X0160355Y0143998D01*
X0160410Y0144021D01*
X0160465Y0144048D01*
X0160517Y0144077D01*
X0160568Y0144110D01*
X0160617Y0144146D01*
X0160663Y0144184D01*
X0160707Y0144226D01*
X0160749Y0144270D01*
X0160787Y0144316D01*
X0160823Y0144365D01*
X0160856Y0144416D01*
X0160885Y0144468D01*
X0160912Y0144523D01*
X0160935Y0144578D01*
X0160955Y0144635D01*
X0160971Y0144694D01*
X0160984Y0144753D01*
X0160993Y0144812D01*
X0160998Y0144873D01*
X0161000Y0144933D01*
X0161000Y0151933D01*
X0160998Y0151993D01*
X0160993Y0152054D01*
X0160984Y0152113D01*
X0160971Y0152172D01*
X0160955Y0152231D01*
X0160935Y0152288D01*
X0160912Y0152343D01*
X0160885Y0152398D01*
X0160856Y0152450D01*
X0160823Y0152501D01*
X0160787Y0152550D01*
X0160749Y0152596D01*
X0160707Y0152640D01*
X0160663Y0152682D01*
X0160617Y0152720D01*
X0160568Y0152756D01*
X0160517Y0152789D01*
X0160465Y0152818D01*
X0160410Y0152845D01*
X0160355Y0152868D01*
X0160298Y0152888D01*
X0160239Y0152904D01*
X0160180Y0152917D01*
X0160121Y0152926D01*
X0160060Y0152931D01*
X0160000Y0152933D01*
X0158500Y0152933D01*
X0158000Y0152433D01*
X0139000Y0152433D01*
X0138500Y0152933D01*
X0137000Y0152933D01*
X0136940Y0152931D01*
X0136879Y0152926D01*
X0136820Y0152917D01*
X0136761Y0152904D01*
X0136702Y0152888D01*
X0136645Y0152868D01*
X0136590Y0152845D01*
X0136535Y0152818D01*
X0136483Y0152789D01*
X0136432Y0152756D01*
X0136383Y0152720D01*
X0136337Y0152682D01*
X0136293Y0152640D01*
X0136251Y0152596D01*
X0136213Y0152550D01*
X0136177Y0152501D01*
X0136144Y0152450D01*
X0136115Y0152398D01*
X0136088Y0152343D01*
X0136065Y0152288D01*
X0136045Y0152231D01*
X0136029Y0152172D01*
X0136016Y0152113D01*
X0136007Y0152054D01*
X0136002Y0151993D01*
X0136000Y0151933D01*
X0136000Y0144933D01*
X0136002Y0144873D01*
X0136007Y0144812D01*
X0136016Y0144753D01*
X0136029Y0144694D01*
X0136045Y0144635D01*
X0136065Y0144578D01*
X0136088Y0144523D01*
X0136115Y0144468D01*
X0136144Y0144416D01*
X0136177Y0144365D01*
X0136213Y0144316D01*
X0136251Y0144270D01*
X0136293Y0144226D01*
X0136337Y0144184D01*
X0136383Y0144146D01*
X0136432Y0144110D01*
X0136483Y0144077D01*
X0136535Y0144048D01*
X0136590Y0144021D01*
X0136645Y0143998D01*
X0136702Y0143978D01*
X0136761Y0143962D01*
X0136820Y0143949D01*
X0136879Y0143940D01*
X0136940Y0143935D01*
X0137000Y0143933D01*
D15*
X0134300Y0148433D03*
X0134300Y0136933D03*
X0134300Y0125933D03*
X0134300Y0114933D03*
X0162700Y0114933D03*
X0162700Y0125933D03*
X0162700Y0136933D03*
X0162700Y0148433D03*
M02*
